<mxfile host="app.diagrams.net" modified="2023-12-28T08:29:48.422Z" agent="Mozilla/5.0 (Windows NT 10.0; Win64; x64) AppleWebKit/537.36 (KHTML, like Gecko) Chrome/120.0.0.0 Safari/537.36" version="22.1.15" etag="6qp-mqu5KfbvczKaEdfz" type="github">
  <diagram name="Page-1" id="XQBJPHCaqzPdE4JBxOd8">
    <mxGraphModel>
      <root>
        <mxCell id="0" />
        <mxCell id="1" parent="0" />
      </root>
    </mxGraphModel>
  </diagram>
</mxfile>
